<?xml version="1.0" encoding="UTF-8" standalone="no"?>
<!DOCTYPE svg PUBLIC "-//W3C//DTD SVG 1.1//EN" "http://www.w3.org/Graphics/SVG/1.1/DTD/svg11.dtd">
<svg width="100%" height="100%" viewBox="0 0 13828 4375" version="1.1" xmlns="http://www.w3.org/2000/svg" xmlns:xlink="http://www.w3.org/1999/xlink" xml:space="preserve" xmlns:serif="http://www.serif.com/" style="fill-rule:evenodd;clip-rule:evenodd;stroke-linecap:round;stroke-linejoin:round;stroke-miterlimit:1.5;">
    <g transform="matrix(1,0,0,1,-29.0972,-40.4884)">
        <g transform="matrix(0.885827,0,0,0.677081,1337.29,1092.04)">
            <g transform="matrix(-1.05494,0,0,1.27094,6123.78,-3256.08)">
                <path d="M2963.59,2846.08C4997.34,2846.08 5684.18,1952.07 6682.65,2293.12C5637.3,895.934 4231.42,1429.11 4040.26,1507.2C3298.53,1810.16 2507.24,2846.08 2963.59,2846.08Z" style="fill:rgb(0,205,255);stroke:black;stroke-width:1.11px;"/>
            </g>
        </g>
        <g transform="matrix(0.885827,0,0,0.677081,1337.29,1092.04)">
            <g transform="matrix(1.05494,0,0,1.27094,-4158.84,-3256.08)">
                <path d="M3186.64,2839.83C5220.39,2839.83 5684.18,1952.07 6682.65,2293.12C5637.3,895.934 4229.53,1423.87 4040.26,1507.2C3002.56,1964.01 2730.3,2839.83 3186.64,2839.83Z" style="fill:rgb(62,114,215);stroke:black;stroke-width:1.11px;"/>
            </g>
        </g>
        <g transform="matrix(0.885827,0,0,0.677081,1337.29,1092.04)">
            <g transform="matrix(1.05494,0,0,-1.27094,-4071.87,6576.76)">
                <path d="M2963.59,2846.08C4997.34,2846.08 5684.18,1952.07 6682.65,2293.12C5637.3,895.934 4231.42,1429.11 4040.26,1507.2C3298.53,1810.16 2507.24,2846.08 2963.59,2846.08Z" style="fill:rgb(0,205,255);stroke:black;stroke-width:1.11px;"/>
            </g>
        </g>
        <g transform="matrix(0.885827,0,0,0.677081,1337.29,1092.04)">
            <g transform="matrix(-1.05494,0,0,-1.27094,6206.5,6610.97)">
                <path d="M3186.64,2839.83C5220.39,2839.83 5684.18,1952.07 6682.65,2293.12C5637.3,895.934 4229.53,1423.87 4040.26,1507.2C3002.56,1964.01 2730.3,2839.83 3186.64,2839.83Z" style="fill:rgb(62,114,215);stroke:black;stroke-width:1.11px;"/>
            </g>
        </g>
        <g transform="matrix(0.885827,0,0,0.677081,1337.29,1092.04)">
            <g transform="matrix(-1.12889,0,0,1.47693,6528.78,-8223.34)">
                <path d="M2753.15,6358.93C2691.94,6792.94 3344.47,6601.34 3450.47,6582.13C4114.25,6461.87 5552.81,6039.47 6711.72,6069.75C7328.58,6085.87 6996.79,7307.98 7040.66,7038.15C7124.45,6522.81 6568.94,6763.33 6286.03,6847.29C4860.55,7270.34 3863.42,7348.72 3020.81,7348.72C2550.63,7348.72 2774.38,6242.09 2753.15,6358.93Z" style="fill:rgb(0,205,255);stroke:black;stroke-width:1px;"/>
            </g>
        </g>
        <g transform="matrix(0.885827,0,0,0.677081,1337.29,1092.04)">
            <g transform="matrix(1.12889,0,0,1.47693,-4544.79,-8223.34)">
                <path d="M2753.15,6358.93C2691.94,6792.94 3351.95,6718.42 3457.95,6699.22C4121.73,6578.95 5552.81,6039.47 6711.72,6069.75C7328.58,6085.87 7007.33,7354.46 7051.2,7084.63C7134.99,6569.29 6594.5,6613.77 6311.6,6697.72C4886.12,7120.78 3954.21,7335.43 3020.81,7348.72C2550.68,7355.42 2774.38,6242.09 2753.15,6358.93Z" style="fill:rgb(62,114,215);stroke:black;stroke-width:1px;"/>
            </g>
        </g>
        <g transform="matrix(0.885827,0,0,0.677081,1337.29,1092.04)">
            <g transform="matrix(4.5718,0,0,5.9813,-26181,-7681.44)">
                <text x="6605.28px" y="2011.64px" style="font-family:'DINCondensed-Bold', 'DIN Condensed';font-weight:700;font-stretch:condensed;font-size:1200px;">XFlo<tspan x="8176.07px " y="2011.64px ">w</tspan></text>
            </g>
        </g>
    </g>
</svg>
